<?xml version="1.0" encoding="utf-8"?>
<!-- Generator: Adobe Illustrator 22.1.0, SVG Export Plug-In . SVG Version: 6.00 Build 0)  -->
<svg version="1.1" id="Layer_1" xmlns="http://www.w3.org/2000/svg" xmlns:xlink="http://www.w3.org/1999/xlink" x="0px" y="0px"
	 viewBox="0 0 441 289" style="enable-background:new 0 0 441 289;" xml:space="preserve">
<style type="text/css">
	.st0{fill:#F6B1CF;}
	.st1{opacity:0.4;fill:#2B3990;}
	.st2{fill:none;stroke:#000000;stroke-miterlimit:10;}
	.st3{fill:none;}
	.st4{font-family:'MyriadPro-Regular';}
	.st5{font-size:24.2866px;}
	.st6{fill:#F15A29;}
	.st7{font-size:24px;}
	.st8{fill:none;stroke:#414042;stroke-width:0.5;stroke-miterlimit:10;}
	.st9{fill:none;stroke:#000000;stroke-width:0.5;stroke-miterlimit:10;}
	.st10{fill:#FFFFFF;}
</style>
<circle class="st0" cx="265.5" cy="82.2" r="46.4"/>
<circle class="st1" cx="328.5" cy="82.2" r="46.4"/>
<g>
	<line class="st2" x1="172.9" y1="146.9" x2="427" y2="147.5"/>
</g>
<circle class="st0" cx="229.5" cy="212.2" r="46.4"/>
<circle class="st1" cx="369.9" cy="212.2" r="46.4"/>
<rect x="300.4" y="201.5" width="5.4" height="14.8"/>
<rect x="300.8" y="200" transform="matrix(-1.836970e-16 1 -1 -1.836970e-16 511.9985 -94.1814)" width="4.5" height="17.8"/>
<g>
	<rect x="135.9" y="137.7" width="20.2" height="6.1"/>
	<rect x="135.9" y="150.6" width="20.2" height="6.1"/>
</g>
<rect x="15.2" y="137.1" class="st3" width="106.9" height="23.1"/>
<text transform="matrix(1 0 0 1 15.2159 154.3109)" class="st4 st5">DSC (A,B)</text>
<rect x="167.6" y="76.8" class="st3" width="41.9" height="27.5"/>
<text transform="matrix(1 0 0 1 167.5998 93.79)" class="st6 st4 st7">2 x</text>
<rect x="254.1" y="43.8" class="st3" width="28" height="33"/>
<text transform="matrix(1 0 0 1 254.0891 60.79)" class="st4 st7">A</text>
<rect x="328.5" y="43.8" class="st3" width="21.9" height="30.6"/>
<text transform="matrix(1 0 0 1 328.5048 60.79)" class="st4 st7">B</text>
<g>
	<circle class="st8" cx="229.5" cy="212.2" r="46.4"/>
	<line class="st9" x1="229.5" y1="165.8" x2="201.8" y2="175"/>
	<line class="st9" x1="239" y1="166.8" x2="191.6" y2="185.4"/>
	<line class="st9" x1="247.3" y1="169.4" x2="186.7" y2="194.3"/>
	<line class="st9" x1="255.2" y1="173.6" x2="183.5" y2="206.2"/>
	<line class="st9" x1="261.1" y1="178.3" x2="183.4" y2="218.1"/>
	<line class="st9" x1="268" y1="186.3" x2="189.3" y2="235.5"/>
	<line class="st9" x1="271.9" y1="193.3" x2="195" y2="243.3"/>
	<line class="st9" x1="275.3" y1="204.5" x2="200.9" y2="248.8"/>
	<line class="st9" x1="275.9" y1="214.2" x2="210.2" y2="254.4"/>
	<line class="st9" x1="273.2" y1="227.8" x2="229.5" y2="258.7"/>
</g>
<g>
	<circle class="st8" cx="369.9" cy="212.2" r="46.4"/>
	<line class="st9" x1="369.9" y1="165.8" x2="342.2" y2="175"/>
	<line class="st9" x1="379.5" y1="166.8" x2="332" y2="185.4"/>
	<line class="st9" x1="387.7" y1="169.4" x2="327.1" y2="194.3"/>
	<line class="st9" x1="395.6" y1="173.6" x2="323.9" y2="206.2"/>
	<line class="st9" x1="401.5" y1="178.3" x2="323.9" y2="218.1"/>
	<line class="st9" x1="408.4" y1="186.3" x2="329.8" y2="235.5"/>
	<line class="st9" x1="412.3" y1="193.3" x2="335.4" y2="243.3"/>
	<line class="st9" x1="415.7" y1="204.5" x2="341.3" y2="248.8"/>
	<line class="st9" x1="416.3" y1="214.2" x2="350.6" y2="254.4"/>
	<line class="st9" x1="413.6" y1="227.8" x2="369.9" y2="258.7"/>
</g>
<rect x="220.4" y="167.3" class="st3" width="16.6" height="19.5"/>
<text transform="matrix(1 0 0 1 220.3832 184.3128)" class="st10 st4 st7">A</text>
<rect x="362.1" y="172.1" class="st3" width="14" height="19.5"/>
<text transform="matrix(1 0 0 1 362.0828 189.1079)" class="st10 st4 st7">B</text>
<line class="st9" x1="300.4" y1="51.6" x2="286.3" y2="63"/>
<line class="st9" x1="305.7" y1="59" x2="282.8" y2="74.3"/>
<line class="st9" x1="309.2" y1="66.7" x2="282.1" y2="85.3"/>
<line class="st9" x1="311.6" y1="76.8" x2="283.7" y2="94.3"/>
<line class="st9" x1="311.8" y1="85.5" x2="286.9" y2="102.9"/>
<line class="st9" x1="309.7" y1="96.3" x2="290.2" y2="108.4"/>
<line class="st9" x1="304.7" y1="107.7" x2="294.2" y2="113.5"/>
</svg>
